<svg width="32" height="32" viewBox="0 0 32 32" fill="none" xmlns="http://www.w3.org/2000/svg">
<circle cx="15.7266" cy="10" r="4" stroke="white" stroke-width="2" stroke-linecap="round"/>
<path fill-rule="evenodd" clip-rule="evenodd" d="M17.0543 17.0759C16.6163 17.0255 16.1729 17 15.7277 17C13.8082 17 11.9215 17.4738 10.3588 18.3732C8.79668 19.2721 7.6089 20.5702 7.05857 22.1106C6.87276 22.6307 7.14374 23.203 7.66383 23.3888C8.18392 23.5746 8.75617 23.3036 8.94198 22.7835C9.30324 21.7723 10.1242 20.8157 11.3564 20.1066C12.3704 19.523 13.5914 19.1503 14.8857 19.0368C15.2165 18.0601 16.0367 17.3092 17.0543 17.0759Z" fill="white"/>
<path d="M21.7266 16L21.7266 24" stroke="white" stroke-width="2.5" stroke-linecap="round"/>
<path d="M25.7266 20L17.7266 20" stroke="white" stroke-width="2.5" stroke-linecap="round"/>
</svg>
