<svg width="16" height="16" viewBox="0 0 16 16" fill="none" xmlns="http://www.w3.org/2000/svg">
<path fill-rule="evenodd" clip-rule="evenodd" d="M8.4319 3.41798C7.53924 3.42064 6.66739 3.68778 5.92646 4.18565C5.18554 4.68352 4.60877 5.38979 4.26901 6.21527C3.92924 7.04074 3.84173 7.94839 4.01751 8.82358C4.19329 9.69876 4.62448 10.5022 5.25663 11.1325C5.88877 11.7628 6.69352 12.1916 7.56922 12.3647C8.44493 12.5379 9.35231 12.4477 10.1768 12.1055C11.0012 11.7632 11.7058 11.1844 12.2014 10.442C12.6971 9.69957 12.9617 8.82693 12.9617 7.93427C12.9611 7.34021 12.8434 6.7521 12.6154 6.20354C12.3874 5.65499 12.0535 5.15675 11.6328 4.73732C11.2121 4.31788 10.7129 3.98547 10.1636 3.75909C9.61442 3.53271 9.02595 3.4168 8.4319 3.41798ZM10.8337 8.89499H7.98296C7.85556 8.89499 7.73338 8.84438 7.6433 8.75429C7.55321 8.66421 7.5026 8.54203 7.5026 8.41463V5.0521H8.4319V7.93427H10.8337V8.89499Z" fill="#929AA9"/>
<path d="M8.43195 14.6682C7.20285 14.6659 5.998 14.326 4.94897 13.6855C3.89995 13.045 3.0471 12.1286 2.48356 11.0363L3.33653 10.5873C3.98697 11.8366 5.07263 12.8043 6.3882 13.3074C7.70378 13.8104 9.15809 13.814 10.4761 13.3174C11.7942 12.8208 12.8846 11.8585 13.5411 10.6124C14.1977 9.36637 14.375 7.9229 14.0393 6.55499C13.7037 5.18708 12.8785 3.98955 11.7198 3.18885C10.561 2.38816 9.14907 2.03979 7.75086 2.20963C6.35266 2.37947 5.06515 3.05575 4.1318 4.11057C3.19844 5.1654 2.68394 6.52566 2.68558 7.93414C2.68496 8.04519 2.64589 8.1526 2.57501 8.23809C2.50412 8.32358 2.40581 8.38187 2.29679 8.40304C2.18777 8.42421 2.07478 8.40695 1.97706 8.3542C1.87933 8.30145 1.8029 8.21647 1.76077 8.11371L0.800049 5.71191L1.69792 5.35725L1.98973 6.08902C2.33329 4.88319 3.00668 3.79722 3.93407 2.95341C4.86145 2.1096 6.006 1.54146 7.23882 1.31296C8.47165 1.08447 9.74378 1.2047 10.912 1.66011C12.0802 2.11553 13.098 2.88804 13.8509 3.89065C14.6038 4.89327 15.0618 6.08616 15.1733 7.33501C15.2849 8.58385 15.0456 9.83905 14.4824 10.9592C13.9191 12.0794 13.0543 13.0201 11.9854 13.6754C10.9164 14.3307 9.68575 14.6745 8.43195 14.6682Z" fill="#929AA9"/>
</svg>
