<svg width="24" height="24" viewBox="0 0 24 24" fill="none" xmlns="http://www.w3.org/2000/svg">
<path d="M5.75744 4.90617L6.37072 4.29289C6.76124 3.90237 7.39441 3.90237 7.78493 4.29289L10.3707 6.87868C10.7612 7.2692 10.7612 7.90237 10.3707 8.29289L8.57831 10.0853C8.27942 10.3842 8.20533 10.8408 8.39436 11.2189C9.48711 13.4044 11.2592 15.1765 13.4448 16.2693C13.8228 16.4583 14.2794 16.3842 14.5783 16.0853L16.3707 14.2929C16.7612 13.9024 17.3944 13.9024 17.7849 14.2929L20.3707 16.8787C20.7612 17.2692 20.7612 17.9024 20.3707 18.2929L19.7574 18.9062C17.6461 21.0175 14.3035 21.2551 11.9148 19.4635L10.7064 18.5572C8.96286 17.2496 7.41404 15.7007 6.10639 13.9572L5.20009 12.7488C3.40855 10.3601 3.64609 7.01752 5.75744 4.90617Z" fill="white"/>
</svg>
