<svg width="22" height="23" viewBox="0 0 22 23" fill="none" xmlns="http://www.w3.org/2000/svg">
<path d="M6.09407 16.0824C9.51556 19.4886 13.4586 22.0637 16.6554 22.1749C18.1042 22.2253 19.3308 21.7646 20.3166 20.7136C20.8621 20.1192 21.2686 19.3705 21.2424 18.6146C21.2319 18.0873 20.9933 17.56 20.4448 17.1634L16.9595 14.6357C16.4918 14.3049 16.0688 14.125 15.6669 14.1032C15.1782 14.0704 14.7156 14.3375 14.2216 14.8315L13.4377 15.5828C13.3161 15.7044 13.176 15.7467 13.0186 15.7412C12.8616 15.7515 12.7096 15.6754 12.5971 15.6086C11.9465 15.2163 10.6934 14.2369 9.31648 12.8599C7.93952 11.483 6.93783 10.2685 6.57543 9.57169C6.5086 9.45926 6.45643 9.31589 6.4515 9.17416C6.43843 9.02428 6.48129 8.89994 6.59529 8.78594L7.36125 7.9711C7.83895 7.4608 8.09024 6.99768 8.07326 6.5095C8.05902 6.10006 7.87155 5.68459 7.53257 5.20881L5.07929 1.82832C4.66588 1.24771 4.09889 0.999929 3.50808 0.971515C2.80758 0.955018 2.06374 1.27518 1.43239 1.89023C0.397689 2.89234 -0.0227811 4.14388 0.0341098 5.55357C0.14529 8.75037 2.67258 12.6761 6.09407 16.0824Z" fill="white"/>
</svg>
