<svg width="20" height="20" viewBox="0 0 20 20" fill="none" xmlns="http://www.w3.org/2000/svg">
<path d="M5.17244 9.91211H4.33325C3.78097 9.91211 3.33325 9.46439 3.33325 8.91211V7.76758C3.33325 7.21529 3.78097 6.76758 4.33325 6.76758H7.4895C8.04179 6.76758 8.4895 6.31986 8.4895 5.76758V3.5C8.4895 2.94772 8.93722 2.5 9.4895 2.5H10.3801C10.9324 2.5 11.3801 2.94772 11.3801 3.5V5.76758C11.3801 6.31986 11.8278 6.76758 12.3801 6.76758H15.7219C16.2742 6.76758 16.7219 7.21529 16.7219 7.76758V8.91211C16.7219 9.46439 16.2742 9.91211 15.7219 9.91211H14.9023M5.17244 9.91211L3.9468 14.8667C3.63484 16.1278 4.58918 17.347 5.88828 17.347H7.44458M5.17244 9.91211H14.9023M14.9023 9.91211L16.2566 14.8144C16.6085 16.0882 15.6503 17.347 14.3288 17.347H12.4543M12.4543 17.347V13.5189M12.4543 17.347H7.44458M7.44458 17.347V13.5189" stroke="#101114" stroke-width="1.5" stroke-linecap="round"/>
</svg>
