<svg width="24" height="24" viewBox="0 0 24 24" fill="none" xmlns="http://www.w3.org/2000/svg">
<path d="M18.5 3H7.73214C7.64375 3 7.57143 3.07232 7.57143 3.16071V4.28571C7.57143 4.37411 7.64375 4.44643 7.73214 4.44643H17.6964V18.2679C17.6964 18.3562 17.7688 18.4286 17.8571 18.4286H18.9821C19.0705 18.4286 19.1429 18.3562 19.1429 18.2679V3.64286C19.1429 3.28728 18.8556 3 18.5 3ZM15.9286 5.57143H5.64286C5.28728 5.57143 5 5.85871 5 6.21429V16.8757C5 17.0464 5.0683 17.2092 5.18884 17.3297L8.67031 20.8112C8.71451 20.8554 8.76473 20.8915 8.81897 20.9217V20.9598H8.90335C8.97366 20.9859 9.04799 21 9.12433 21H15.9286C16.2842 21 16.5714 20.7127 16.5714 20.3571V6.21429C16.5714 5.85871 16.2842 5.57143 15.9286 5.57143ZM9.45982 19.7143H9.4558L6.44643 16.7049V16.7009H9.45982V19.7143Z" fill="#929AA9"/>
</svg>
