<svg width="20" height="20" viewBox="0 0 20 20" fill="none" xmlns="http://www.w3.org/2000/svg">
<path d="M1.99944 11.818L4.20414 13.4414C4.6301 13.7551 5.22664 13.6827 5.56529 13.2764L11.6292 6" stroke="#101114" stroke-width="1.5" stroke-linecap="round"/>
<path d="M11.9801 13.2237L12.5562 13.7038L12.5562 13.7038L11.9801 13.2237ZM18.5762 6.48015C18.8413 6.16195 18.7984 5.68902 18.4801 5.42384C18.1619 5.15866 17.689 5.20165 17.4238 5.51985L18.5762 6.48015ZM10.5638 13.3451L10.0778 13.9163L10.0778 13.9163L10.5638 13.3451ZM12.5562 13.7038L18.5762 6.48015L17.4238 5.51985L11.4039 12.7435L12.5562 13.7038ZM8.62501 12.6801L10.0778 13.9163L11.0499 12.7739L9.59706 11.5377L8.62501 12.6801ZM11.4039 12.7435C11.3149 12.8503 11.1558 12.864 11.0499 12.7739L10.0778 13.9163C10.8192 14.5471 11.933 14.4517 12.5562 13.7038L11.4039 12.7435Z" fill="#101114"/>
</svg>
