<svg width="28" height="11" viewBox="0 0 28 11" fill="none" xmlns="http://www.w3.org/2000/svg">
<path d="M14.0011 0.666835C9.17308 0.677583 4.56404 1.64491 2.22495 3.82676C1.16487 4.81559 0.623312 6.00862 0.669402 7.44886C0.70397 8.25497 0.945945 9.07182 1.49903 9.58772C1.87928 9.95316 2.42084 10.1574 3.08915 10.0499L7.34099 9.37276C7.9056 9.27603 8.33193 9.10406 8.63152 8.83536C9.00024 8.51292 9.13851 7.99701 9.13851 7.29839L9.16156 6.21283C9.16156 6.04086 9.2307 5.91189 9.34592 5.80441C9.44963 5.68618 9.61094 5.63244 9.73769 5.60019C10.4751 5.41748 12.0537 5.22401 14.0011 5.22401C15.9484 5.22401 17.5154 5.37449 18.2644 5.61094C18.3912 5.64319 18.5294 5.70767 18.6331 5.80441C18.7484 5.90114 18.806 6.01937 18.806 6.18059L18.8405 7.29839C18.8636 7.99701 19.0134 8.50217 19.3706 8.83536C19.6702 9.11481 20.0965 9.27603 20.6726 9.37276L24.7977 10.0284C25.5006 10.1466 26.0767 9.92091 26.5146 9.52324C27.0216 9.03957 27.3212 8.28721 27.3327 7.40587C27.3557 5.96563 26.7681 4.78334 25.7311 3.82676C23.392 1.64491 18.829 0.656087 14.0011 0.666835Z" fill="white"/>
</svg>
