
<svg width="16" height="17" viewBox="0 0 16 17" fill="none" xmlns="http://www.w3.org/2000/svg">
<path fill-rule="evenodd" clip-rule="evenodd" d="M14.3996 8.09189C14.3996 9.78928 13.7253 11.4171 12.5251 12.6174C11.3249 13.8176 9.69699 14.4919 7.99961 14.4919C6.30222 14.4919 4.67436 13.8176 3.47413 12.6174C2.27389 11.4171 1.59961 9.78928 1.59961 8.09189C1.59961 6.39451 2.27389 4.76664 3.47413 3.56641C4.67436 2.36618 6.30222 1.69189 7.99961 1.69189C9.69699 1.69189 11.3249 2.36618 12.5251 3.56641C13.7253 4.76664 14.3996 6.39451 14.3996 8.09189ZM8.79961 4.89189C8.79961 5.10407 8.71532 5.30755 8.56529 5.45758C8.41527 5.60761 8.21178 5.69189 7.99961 5.69189C7.78744 5.69189 7.58395 5.60761 7.43392 5.45758C7.28389 5.30755 7.19961 5.10407 7.19961 4.89189C7.19961 4.67972 7.28389 4.47624 7.43392 4.32621C7.58395 4.17618 7.78744 4.09189 7.99961 4.09189C8.21178 4.09189 8.41527 4.17618 8.56529 4.32621C8.71532 4.47624 8.79961 4.67972 8.79961 4.89189ZM7.19961 7.29189C6.98744 7.29189 6.78395 7.37618 6.63392 7.52621C6.48389 7.67624 6.39961 7.87972 6.39961 8.09189C6.39961 8.30407 6.48389 8.50755 6.63392 8.65758C6.78395 8.80761 6.98744 8.89189 7.19961 8.89189V11.2919C7.19961 11.5041 7.28389 11.7076 7.43392 11.8576C7.58395 12.0076 7.78744 12.0919 7.99961 12.0919H8.79961C9.01178 12.0919 9.21527 12.0076 9.36529 11.8576C9.51532 11.7076 9.59961 11.5041 9.59961 11.2919C9.59961 11.0797 9.51532 10.8762 9.36529 10.7262C9.21527 10.5762 9.01178 10.4919 8.79961 10.4919V8.09189C8.79961 7.87972 8.71532 7.67624 8.56529 7.52621C8.41527 7.37618 8.21178 7.29189 7.99961 7.29189H7.19961Z" fill="#F75858"/>
</svg>
