<svg width="24" height="24" viewBox="0 0 24 24" fill="none" xmlns="http://www.w3.org/2000/svg">
<path fill-rule="evenodd" clip-rule="evenodd" d="M15.9202 12.7988C15.9725 12.5407 16 12.2736 16 12C16 9.79086 14.2091 8 12 8C11.7264 8 11.4593 8.02746 11.2012 8.07977L12.7295 9.60812C13.5236 9.85 14.15 10.4764 14.3919 11.2705L15.9202 12.7988ZM9.76246 10.8837C9.5945 11.2197 9.5 11.5988 9.5 12C9.5 13.3807 10.6193 14.5 12 14.5C12.4012 14.5 12.7803 14.4055 13.1163 14.2375L14.212 15.3332C13.5784 15.7545 12.8179 16 12 16C9.79086 16 8 14.2091 8 12C8 11.1821 8.24547 10.4216 8.66676 9.78799L9.76246 10.8837Z" fill="#32363E"/>
<path fill-rule="evenodd" clip-rule="evenodd" d="M16.3363 17.4579L15.2346 16.3561C14.2158 16.9004 13.1225 17.25 11.9998 17.25C10.4009 17.25 8.86192 16.5412 7.5129 15.5706C6.1698 14.6043 5.07833 13.4238 4.39065 12.5889C4.18281 12.3366 4.08047 12.2092 4.01915 12.1064C3.97923 12.0395 3.97936 12.0205 3.97948 12.0029L3.97949 12L3.97948 11.9971C3.97936 11.9795 3.97923 11.9605 4.01915 11.8936C4.08047 11.7908 4.18282 11.6634 4.39065 11.4111C5.05796 10.6009 6.1055 9.46532 7.39423 8.5158L6.32271 7.44428C4.98287 8.46349 3.91288 9.6318 3.23282 10.4575C3.21031 10.4848 3.18741 10.5124 3.16427 10.5402L3.16418 10.5403C2.84423 10.9253 2.47949 11.3643 2.47949 12C2.47949 12.6357 2.84422 13.0747 3.16418 13.4597C3.18735 13.4876 3.21028 13.5152 3.23282 13.5425C3.96523 14.4318 5.14991 15.7184 6.63687 16.7882C8.11791 17.8538 9.96285 18.75 11.9998 18.75C13.5895 18.75 15.0622 18.2041 16.3363 17.4579ZM8.99769 5.87662C9.93012 5.4931 10.9389 5.25 11.9998 5.25C14.0367 5.25 15.8816 6.14624 17.3627 7.21178C18.8496 8.28159 20.0343 9.56824 20.7667 10.4575C20.7893 10.4848 20.8122 10.5124 20.8353 10.5403C21.1553 10.9253 21.52 11.3643 21.52 12C21.52 12.6357 21.1553 13.0747 20.8353 13.4597C20.8255 13.4715 20.8157 13.4833 20.806 13.4951C20.7928 13.511 20.7797 13.5268 20.7667 13.5425C20.2832 14.1296 19.6025 14.8899 18.7678 15.6467L17.7058 14.5847C18.4935 13.8768 19.1436 13.1538 19.6089 12.5889C19.8167 12.3366 19.9191 12.2092 19.9804 12.1064C20.0203 12.0395 20.0202 12.0205 20.0201 12.0029L20.02 12L20.0201 11.9971C20.0202 11.9795 20.0203 11.9605 19.9804 11.8936C19.9191 11.7908 19.8167 11.6634 19.6089 11.4111C18.9212 10.5762 17.8297 9.3957 16.4866 8.4294C15.1376 7.45883 13.5986 6.75 11.9998 6.75C11.3772 6.75 10.7638 6.85746 10.1671 7.046L8.99769 5.87662Z" fill="#32363E"/>
<path d="M5 2L21 18" stroke="#32363E" stroke-width="1.5"/>
</svg>
