<svg width="24" height="24" viewBox="0 0 24 24" fill="none" xmlns="http://www.w3.org/2000/svg">
<path d="M10.3975 12.8055C10.7433 13.2678 11.1846 13.6504 11.6913 13.9273C12.198 14.2041 12.7584 14.3687 13.3343 14.41C13.9103 14.4512 14.4884 14.3681 15.0294 14.1663C15.5704 13.9645 16.0617 13.6487 16.4699 13.2403L18.886 10.8243C19.6195 10.0648 20.0253 9.04762 20.0162 7.99181C20.007 6.936 19.5835 5.92602 18.8369 5.17942C18.0903 4.43282 17.0803 4.00933 16.0245 4.00015C14.9687 3.99098 13.9515 4.39686 13.1921 5.13037L11.8068 6.50754" stroke="#929AA9" stroke-width="2" stroke-linecap="round" stroke-linejoin="round"/>
<path d="M13.6189 11.1949C13.273 10.7325 12.8317 10.3499 12.325 10.0731C11.8183 9.79625 11.2579 9.63161 10.682 9.59037C10.1061 9.54912 9.52797 9.63222 8.98696 9.83403C8.44595 10.0358 7.95468 10.3516 7.54645 10.76L5.13037 13.1761C4.39686 13.9356 3.99098 14.9527 4.00015 16.0086C4.00933 17.0644 4.43282 18.0743 5.17942 18.8209C5.92602 19.5675 6.936 19.991 7.99181 20.0002C9.04762 20.0094 10.0648 19.6035 10.8243 18.87L12.2014 17.4928" stroke="#929AA9" stroke-width="2" stroke-linecap="round" stroke-linejoin="round"/>
</svg>
