<svg width="14" height="11" viewBox="0 0 14 11" fill="none" xmlns="http://www.w3.org/2000/svg">
<path fill-rule="evenodd" clip-rule="evenodd" d="M3.4467 1.16652C3.4467 1.03392 3.49938 0.90674 3.59314 0.812972C3.68691 0.719203 3.81409 0.666525 3.9467 0.666525H5.83203C5.96464 0.666525 6.09182 0.719203 6.18558 0.812972C6.27935 0.90674 6.33203 1.03392 6.33203 1.16652C6.33203 1.29913 6.27935 1.42631 6.18558 1.52008C6.09182 1.61385 5.96464 1.66652 5.83203 1.66652H5.15403L6.88603 3.39852C6.90151 3.41405 6.9199 3.42636 6.94015 3.43476C6.9604 3.44316 6.98211 3.44749 7.00403 3.44749C7.02595 3.44749 7.04766 3.44316 7.06791 3.43476C7.08816 3.42636 7.10655 3.41405 7.12203 3.39852L9.7067 0.813191C9.75247 0.764067 9.80767 0.724666 9.869 0.697338C9.93034 0.67001 9.99655 0.655315 10.0637 0.654131C10.1308 0.652946 10.1975 0.665296 10.2598 0.690443C10.322 0.71559 10.3786 0.75302 10.4261 0.800499C10.4735 0.847979 10.511 0.904534 10.5361 0.966793C10.5613 1.02905 10.5736 1.09574 10.5724 1.16287C10.5712 1.23001 10.5565 1.29622 10.5292 1.35755C10.5019 1.41888 10.4625 1.47408 10.4134 1.51986L7.82936 4.10652C7.72103 4.21487 7.59241 4.30082 7.45086 4.35946C7.3093 4.41809 7.15758 4.44828 7.00436 4.44828C6.85115 4.44828 6.69943 4.41809 6.55787 4.35946C6.41632 4.30082 6.2877 4.21487 6.17936 4.10652L4.4467 2.37386V3.05186C4.4467 3.18447 4.39402 3.31164 4.30025 3.40541C4.20648 3.49918 4.07931 3.55186 3.9467 3.55186C3.81409 3.55186 3.68691 3.49918 3.59314 3.40541C3.49938 3.31164 3.4467 3.18447 3.4467 3.05186V1.16652Z" fill="#F85050"/>
<path d="M11.2773 6.43333C8.40141 5.36813 5.23151 5.41449 2.38798 6.56333L1.92465 6.74066C1.41154 6.93758 0.984402 7.3093 0.718528 7.79031C0.452654 8.27133 0.365106 8.83075 0.471316 9.36999L0.675982 10.4127C0.708208 10.5762 0.800562 10.7218 0.934832 10.8207C1.0691 10.9195 1.23554 10.9645 1.40132 10.9467L3.96665 10.6727C4.05598 10.663 4.14245 10.6355 4.22086 10.5916C4.29927 10.5477 4.368 10.4884 4.42292 10.4173C4.47785 10.3462 4.51783 10.2647 4.54046 10.1778C4.5631 10.0908 4.56792 10.0002 4.55465 9.91133L4.40132 8.87999C6.08624 8.3089 7.91239 8.3089 9.59731 8.87999L9.44398 9.91133C9.43071 10.0002 9.43556 10.0909 9.45823 10.1779C9.48091 10.2649 9.52095 10.3464 9.57594 10.4175C9.63093 10.4887 9.69974 10.5479 9.77823 10.5918C9.85671 10.6356 9.94325 10.6631 10.0326 10.6727L12.598 10.9467C12.7636 10.9643 12.9297 10.9194 13.0639 10.8207C13.198 10.722 13.2903 10.5767 13.3226 10.4133L13.5293 9.36333C13.6362 8.82111 13.5472 8.25854 13.2782 7.77581C13.0091 7.29308 12.5774 6.92153 12.06 6.72733L11.2786 6.43399L11.2773 6.43333Z" fill="#F85050"/>
</svg>
