<svg width="20" height="28" viewBox="0 0 20 28" fill="none" xmlns="http://www.w3.org/2000/svg">
<path d="M18.3333 12.6667C18.575 12.6668 18.8084 12.7543 18.9906 12.9131C19.1727 13.0719 19.2911 13.2913 19.324 13.5307L19.3333 13.6667V14.3334C19.3335 16.6049 18.4748 18.7924 16.9295 20.4572C15.3842 22.1219 13.2665 23.1408 11.0013 23.3094L11 26.3334C10.9999 26.5868 10.9037 26.8307 10.7307 27.0158C10.5577 27.2009 10.3209 27.3135 10.0681 27.3308C9.81537 27.3481 9.56547 27.2687 9.36893 27.1088C9.17238 26.9489 9.04386 26.7204 9.00932 26.4694L8.99999 26.3334V23.3094C6.78868 23.1452 4.71582 22.1704 3.17894 20.572C1.64206 18.9736 0.749341 16.8641 0.67199 14.6481L0.666656 14.3334V13.6667C0.666734 13.4134 0.762982 13.1695 0.935953 12.9844C1.10892 12.7992 1.34572 12.6867 1.5985 12.6694C1.85127 12.6521 2.10118 12.7314 2.29772 12.8913C2.49426 13.0512 2.62279 13.2797 2.65732 13.5307L2.66666 13.6667V14.3334C2.6665 16.1402 3.36495 17.877 4.61591 19.1806C5.86686 20.4843 7.57343 21.2537 9.37866 21.3281L9.66666 21.3334H10.3333C12.1401 21.3336 13.8769 20.6351 15.1806 19.3842C16.4842 18.1332 17.2537 16.4266 17.328 14.6214L17.3333 14.3334V13.6667C17.3333 13.4015 17.4387 13.1472 17.6262 12.9596C17.8138 12.7721 18.0681 12.6667 18.3333 12.6667ZM9.99999 0.666748C11.4145 0.666748 12.771 1.22865 13.7712 2.22885C14.7714 3.22904 15.3333 4.58559 15.3333 6.00008V14.0001C15.3333 15.4146 14.7714 16.7711 13.7712 17.7713C12.771 18.7715 11.4145 19.3334 9.99999 19.3334C8.5855 19.3334 7.22895 18.7715 6.22875 17.7713C5.22856 16.7711 4.66666 15.4146 4.66666 14.0001V6.00008C4.66666 4.58559 5.22856 3.22904 6.22875 2.22885C7.22895 1.22865 8.5855 0.666748 9.99999 0.666748Z" fill="white"/>
</svg>
