<svg width="13" height="14" viewBox="0 0 13 14" fill="none" xmlns="http://www.w3.org/2000/svg">
<path d="M4.71373 8.54118C6.42448 10.2443 8.39602 11.5319 9.99442 11.5875C10.7188 11.6126 11.3321 11.3823 11.825 10.8568C12.0978 10.5596 12.301 10.1852 12.2879 9.8073C12.2826 9.54366 12.1634 9.27999 11.8891 9.0817L10.1464 7.81785C9.91261 7.65243 9.70108 7.5625 9.50016 7.55158C9.2558 7.53522 9.02451 7.66873 8.77751 7.91573L8.38556 8.29139C8.32476 8.35219 8.25472 8.37334 8.17598 8.37061C8.09751 8.37574 8.02148 8.33771 7.96527 8.30429C7.63994 8.10817 7.01342 7.61845 6.32494 6.92997C5.63646 6.24149 5.13561 5.63424 4.95441 5.28584C4.921 5.22963 4.89491 5.15794 4.89245 5.08708C4.88591 5.01214 4.90734 4.94997 4.96434 4.89297L5.34732 4.48555C5.58618 4.2304 5.71182 3.99884 5.70333 3.75475C5.69621 3.55003 5.60248 3.3423 5.43298 3.1044L4.20634 1.41416C3.99964 1.12386 3.71614 0.999964 3.42074 0.985757C3.07049 0.977509 2.69857 1.13759 2.38289 1.44512C1.86554 1.94617 1.65531 2.57194 1.68375 3.27679C1.73934 4.87518 3.00299 6.83803 4.71373 8.54118Z" fill="#11B991"/>
<path d="M8.00002 5.5L11.5 2M11.5 2H8.00002M11.5 2V5.5" stroke="#11B991" stroke-width="1.5" stroke-linecap="round" stroke-linejoin="round"/>
</svg>
