<svg width="20" height="20" viewBox="0 0 20 20" fill="none" xmlns="http://www.w3.org/2000/svg">
<path d="M16.6665 8.33333L17.1968 8.86366L17.7272 8.33333L17.1968 7.803L16.6665 8.33333ZM2.58317 15C2.58317 15.4142 2.91896 15.75 3.33317 15.75C3.74738 15.75 4.08317 15.4142 4.08317 15L2.58317 15ZM13.0302 13.0303L17.1968 8.86366L16.1362 7.803L11.9695 11.9697L13.0302 13.0303ZM17.1968 7.803L13.0302 3.63634L11.9695 4.697L16.1362 8.86366L17.1968 7.803ZM16.6665 7.58333L9.33317 7.58333L9.33317 9.08333L16.6665 9.08333L16.6665 7.58333ZM2.58317 14.3333L2.58317 15L4.08317 15L4.08317 14.3333L2.58317 14.3333ZM9.33317 7.58333C5.60525 7.58333 2.58317 10.6054 2.58317 14.3333L4.08317 14.3333C4.08317 11.4338 6.43367 9.08333 9.33317 9.08333L9.33317 7.58333Z" fill="white"/>
</svg>
