<svg width="24" height="24" viewBox="0 0 24 24" fill="none" xmlns="http://www.w3.org/2000/svg">
<path d="M14.6667 23.6334V20.9C16.6667 20.3223 18.2778 19.2112 19.5 17.5667C20.7222 15.9223 21.3333 14.0556 21.3333 11.9667C21.3333 9.87783 20.7222 8.01116 19.5 6.36672C18.2778 4.72227 16.6667 3.61116 14.6667 3.03338V0.300049C17.4222 0.922271 19.6667 2.31694 21.4 4.48405C23.1333 6.65116 24 9.14538 24 11.9667C24 14.788 23.1333 17.2827 21.4 19.4507C19.6667 21.6187 17.4222 23.0129 14.6667 23.6334ZM0 16V8.00005H5.33333L12 1.33338V22.6667L5.33333 16H0ZM14.6667 17.3334V6.60005C15.7111 7.08894 16.528 7.82227 17.1173 8.80005C17.7067 9.77783 18.0009 10.8445 18 12C18 13.1334 17.7053 14.1836 17.116 15.1507C16.5267 16.1178 15.7102 16.8454 14.6667 17.3334Z" fill="white"/>
</svg>
