<svg width="16" height="16" viewBox="0 0 16 16" fill="none" xmlns="http://www.w3.org/2000/svg">
<path d="M11.2348 6.13602L7.93604 13.6315H9.26796L9.95845 12.122H12.5112L13.2017 13.6315H14.5336L11.2348 6.13602ZM10.4823 10.9769L11.2348 8.83882L11.9874 10.9769H10.4823ZM8.6691 9.88376C8.66205 9.87881 8.08857 9.47333 7.38849 8.77323C8.50445 7.37719 9.13657 5.79039 9.39456 5.04292H10.9247V3.89778H7.0338V2.80469H5.79323V3.89778H1.90234V5.04292H8.08406C7.81565 5.74432 7.32139 6.85173 6.56746 7.8631C5.64605 6.73253 5.23836 5.88825 5.233 5.8794L5.03197 5.51139L3.96057 6.08396L4.15426 6.44468C4.17936 6.48528 4.63893 7.43107 5.6968 8.69775C5.72274 8.72925 5.74896 8.75996 5.77519 8.79067C4.37334 10.2705 3.26162 10.8491 3.24724 10.859L2.80458 11.133L3.45306 12.0699L3.99722 11.7714C4.05925 11.728 5.16251 11.1468 6.59114 9.66904C7.28248 10.353 7.80973 10.7317 7.84018 10.7535L8.18979 10.9769L8.6691 9.88376Z" fill="#101114"/>
</svg>
