<svg width="28" height="28" viewBox="0 0 28 28" fill="none" xmlns="http://www.w3.org/2000/svg">
<path d="M8.28078 9.63319V13.9999C8.28075 15.0488 8.56967 16.0775 9.1159 16.9733C9.66213 17.869 10.4446 18.5973 11.3775 19.0783C12.3105 19.5592 13.3579 19.7744 14.4051 19.7001C15.4523 19.6258 16.4588 19.265 17.3144 18.6571L18.6766 20.019C17.5493 20.8934 16.1992 21.4342 14.7796 21.58C13.36 21.7257 11.928 21.4706 10.6463 20.8435C9.36468 20.2164 8.28487 19.2426 7.52966 18.0328C6.77446 16.823 6.37418 15.4257 6.37434 13.9999C6.37434 13.7473 6.27391 13.5051 6.09515 13.3265C5.91639 13.1479 5.67393 13.0475 5.42112 13.0475C5.16831 13.0475 4.92586 13.1479 4.7471 13.3265C4.56833 13.5051 4.46791 13.7473 4.46791 13.9999C4.46791 18.939 8.23121 23 13.0488 23.4762L13.0469 23.5238V26.381C13.0469 26.6336 13.1473 26.8759 13.3261 27.0545C13.5048 27.2331 13.7473 27.3334 14.0001 27.3334C14.2529 27.3334 14.4953 27.2331 14.6741 27.0545C14.8529 26.8759 14.9533 26.6336 14.9533 26.381V23.4762C16.8171 23.2921 18.5846 22.5607 20.033 21.3743L25.718 27.0544C25.8978 27.2279 26.1385 27.3238 26.3885 27.3217C26.6384 27.3195 26.8775 27.2193 27.0542 27.0428C27.231 26.8662 27.3312 26.6273 27.3334 26.3776C27.3356 26.1279 27.2395 25.8873 27.0658 25.7077L2.28218 0.945459C2.1024 0.771973 1.86161 0.675977 1.61168 0.678147C1.36175 0.680317 1.12267 0.780479 0.945939 0.95706C0.769205 1.13364 0.668956 1.37251 0.666784 1.62223C0.664612 1.87194 0.760691 2.11252 0.934327 2.29214L8.28078 9.63319ZM20.8089 17.4361L22.213 18.8381C23.0796 17.373 23.5353 15.7017 23.5323 13.9999C23.5323 13.7473 23.4318 13.5051 23.2531 13.3265C23.0743 13.1479 22.8319 13.0475 22.579 13.0475C22.3262 13.0475 22.0838 13.1479 21.905 13.3265C21.7262 13.5051 21.6258 13.7473 21.6258 13.9999C21.6267 15.1934 21.3468 16.3705 20.8089 17.4361ZM8.43234 5.07027L19.3629 15.9914C19.5993 15.354 19.72 14.6796 19.7194 13.9999V6.38077C19.7193 4.97951 19.2039 3.62714 18.2712 2.5807C17.3384 1.53427 16.0534 0.866724 14.6603 0.704965C13.2672 0.543205 11.8632 0.898505 10.7151 1.70333C9.56708 2.50815 8.75406 3.70639 8.43234 5.07027Z" fill="white"/>
</svg>
