<svg width="250" height="250" viewBox="0 0 250 250" fill="none" xmlns="http://www.w3.org/2000/svg">
<mask id="mask0_1775_72856" style="mask-type:alpha" maskUnits="userSpaceOnUse" x="13" y="22" width="225" height="180">
<rect x="13" y="22" width="225" height="180" fill="url(#paint0_linear_1775_72856)"/>
</mask>
<g mask="url(#mask0_1775_72856)">
<path d="M33 56C33 38.3269 47.3269 24 65 24H187C204.673 24 219 38.3269 219 56V288H33V56Z" fill="#32363E"/>
<path d="M45 60C45 46.7452 55.7452 36 69 36H183C196.255 36 207 46.7452 207 60V288H45V60Z" fill="#101114"/>
</g>
<path fill-rule="evenodd" clip-rule="evenodd" d="M148.073 132.668C136.788 143.952 118.493 143.952 107.209 132.668C95.9246 121.384 95.9246 103.089 107.209 91.8044C118.493 80.5201 136.788 80.5201 148.073 91.8044C159.357 103.089 159.357 121.384 148.073 132.668ZM103.707 148.115C120.464 159.318 143.336 157.522 158.131 142.727C174.971 125.887 174.971 98.5851 158.131 81.7456C141.292 64.906 113.99 64.906 97.15 81.7456C82.1335 96.7622 80.5078 120.099 92.2732 136.917L71.0601 158.13C67.9352 161.255 67.9352 166.321 71.0601 169.446C74.185 172.571 79.2514 172.571 82.3762 169.446L103.707 148.115Z" fill="#32363E"/>
<g filter="url(#filter0_i_1775_72856)">
<path d="M118.912 110V102.5H119.889L127.423 108.843H127.433V102.5H128.37V110H127.394L119.86 103.604H119.85V110H118.912ZM133.114 110.107C132.486 110.107 131.952 110.075 131.512 110.01C131.073 109.948 130.718 109.819 130.448 109.624C130.178 109.425 129.981 109.129 129.857 108.735C129.733 108.341 129.672 107.816 129.672 107.158C129.672 106.52 129.733 106.009 129.857 105.625C129.981 105.241 130.178 104.951 130.448 104.756C130.718 104.561 131.073 104.43 131.512 104.365C131.952 104.3 132.486 104.268 133.114 104.268C133.745 104.268 134.279 104.3 134.716 104.365C135.155 104.43 135.51 104.561 135.78 104.756C136.05 104.951 136.247 105.241 136.371 105.625C136.494 106.009 136.556 106.52 136.556 107.158C136.556 107.816 136.494 108.341 136.371 108.735C136.247 109.129 136.05 109.425 135.78 109.624C135.51 109.819 135.155 109.948 134.716 110.01C134.279 110.075 133.745 110.107 133.114 110.107ZM135.619 107.158C135.619 106.693 135.594 106.32 135.546 106.04C135.5 105.76 135.397 105.55 135.238 105.41C135.078 105.267 134.829 105.171 134.491 105.122C134.156 105.073 133.697 105.049 133.114 105.049C132.535 105.049 132.076 105.073 131.737 105.122C131.398 105.171 131.149 105.267 130.99 105.41C130.83 105.55 130.726 105.76 130.677 106.04C130.632 106.32 130.609 106.693 130.609 107.158C130.609 107.64 130.632 108.026 130.677 108.315C130.726 108.605 130.83 108.823 130.99 108.97C131.149 109.113 131.398 109.209 131.737 109.258C132.076 109.303 132.535 109.326 133.114 109.326C133.697 109.326 134.156 109.303 134.491 109.258C134.829 109.209 135.078 109.113 135.238 108.97C135.397 108.823 135.5 108.605 135.546 108.315C135.594 108.026 135.619 107.64 135.619 107.158ZM109.894 122V116.375H110.832V117.151C110.936 116.985 111.04 116.847 111.144 116.736C111.252 116.626 111.39 116.538 111.559 116.473C111.732 116.408 111.964 116.362 112.257 116.336C112.55 116.307 112.936 116.292 113.415 116.292V117.078C112.77 117.078 112.27 117.101 111.916 117.146C111.564 117.192 111.312 117.27 111.159 117.381C111.006 117.488 110.913 117.638 110.88 117.83C110.848 118.022 110.832 118.266 110.832 118.562V122H109.894ZM120.941 120.33C120.941 120.75 120.878 121.08 120.751 121.321C120.627 121.562 120.437 121.738 120.18 121.849C119.922 121.959 119.594 122.029 119.193 122.059C118.796 122.091 118.323 122.107 117.772 122.107C117.144 122.107 116.61 122.075 116.171 122.01C115.735 121.948 115.381 121.819 115.111 121.624C114.844 121.425 114.649 121.129 114.525 120.735C114.405 120.341 114.345 119.816 114.345 119.158C114.345 118.52 114.403 118.009 114.52 117.625C114.641 117.241 114.835 116.951 115.102 116.756C115.368 116.561 115.718 116.43 116.151 116.365C116.588 116.3 117.12 116.268 117.748 116.268C118.467 116.268 119.063 116.318 119.535 116.419C120.007 116.52 120.359 116.712 120.59 116.995C120.824 117.278 120.941 117.693 120.941 118.24V119.446H115.287C115.29 119.863 115.32 120.197 115.375 120.447C115.43 120.698 115.541 120.887 115.707 121.014C115.873 121.141 116.12 121.225 116.449 121.268C116.781 121.307 117.222 121.326 117.772 121.326C118.267 121.326 118.666 121.316 118.969 121.297C119.275 121.277 119.506 121.235 119.662 121.17C119.822 121.102 119.929 121.001 119.984 120.867C120.04 120.734 120.067 120.555 120.067 120.33H120.941ZM117.748 117.049C117.217 117.049 116.789 117.068 116.464 117.107C116.142 117.146 115.896 117.223 115.727 117.337C115.557 117.448 115.442 117.614 115.38 117.835C115.321 118.056 115.29 118.348 115.287 118.709H120.043V118.24C120.043 118.006 120.015 117.812 119.96 117.659C119.908 117.503 119.804 117.381 119.647 117.293C119.491 117.202 119.26 117.138 118.954 117.103C118.651 117.067 118.249 117.049 117.748 117.049ZM125.226 122.107C124.542 122.107 123.992 122.085 123.576 122.039C123.162 121.993 122.848 121.909 122.633 121.785C122.422 121.661 122.278 121.486 122.203 121.258C122.132 121.03 122.096 120.734 122.096 120.369H122.994C122.994 120.574 123.009 120.74 123.038 120.867C123.068 120.991 123.151 121.087 123.287 121.155C123.424 121.22 123.645 121.266 123.951 121.292C124.261 121.315 124.694 121.326 125.25 121.326C125.84 121.326 126.297 121.315 126.622 121.292C126.951 121.266 127.187 121.22 127.33 121.155C127.474 121.087 127.56 120.989 127.589 120.862C127.622 120.735 127.638 120.568 127.638 120.359C127.638 120.105 127.615 119.915 127.57 119.788C127.524 119.661 127.417 119.576 127.247 119.534C127.078 119.489 126.808 119.464 126.437 119.461L124.201 119.437C123.624 119.43 123.185 119.381 122.882 119.29C122.579 119.199 122.373 119.039 122.262 118.812C122.151 118.58 122.096 118.253 122.096 117.83C122.096 117.436 122.156 117.132 122.277 116.917C122.4 116.702 122.592 116.549 122.853 116.458C123.113 116.367 123.452 116.313 123.868 116.297C124.285 116.277 124.788 116.268 125.377 116.268C126.071 116.268 126.621 116.289 127.028 116.331C127.438 116.373 127.744 116.453 127.946 116.57C128.151 116.688 128.284 116.858 128.346 117.083C128.411 117.304 128.444 117.594 128.444 117.952H127.545C127.545 117.741 127.531 117.575 127.501 117.454C127.472 117.33 127.392 117.241 127.262 117.186C127.135 117.127 126.927 117.09 126.637 117.073C126.351 117.057 125.947 117.049 125.426 117.049C124.834 117.049 124.373 117.055 124.044 117.068C123.715 117.081 123.478 117.112 123.331 117.161C123.185 117.21 123.095 117.288 123.063 117.396C123.03 117.5 123.014 117.645 123.014 117.83C123.014 118.019 123.024 118.169 123.043 118.279C123.066 118.387 123.123 118.468 123.214 118.523C123.305 118.579 123.453 118.616 123.659 118.636C123.867 118.652 124.157 118.662 124.528 118.665L126.456 118.685C127.036 118.691 127.475 118.74 127.775 118.831C128.077 118.919 128.283 119.083 128.39 119.324C128.501 119.562 128.556 119.907 128.556 120.359C128.556 120.766 128.496 121.087 128.375 121.321C128.258 121.556 128.069 121.73 127.809 121.844C127.548 121.954 127.205 122.026 126.779 122.059C126.355 122.091 125.838 122.107 125.226 122.107ZM132.591 122.107C131.856 122.107 131.276 122.028 130.853 121.868C130.43 121.705 130.129 121.435 129.95 121.058C129.771 120.677 129.681 120.158 129.681 119.5V116.375H130.624V119.5C130.624 119.871 130.653 120.177 130.712 120.418C130.773 120.656 130.881 120.841 131.034 120.975C131.187 121.105 131.402 121.196 131.678 121.248C131.958 121.3 132.318 121.326 132.757 121.326C133.409 121.326 133.92 121.272 134.291 121.165C134.662 121.058 134.924 120.89 135.077 120.662C135.233 120.431 135.311 120.132 135.311 119.764V116.375H136.249V122H135.311V121.253C135.174 121.442 135.002 121.6 134.794 121.727C134.585 121.854 134.307 121.948 133.959 122.01C133.61 122.075 133.155 122.107 132.591 122.107ZM137.726 122V114.5H138.663V122H137.726ZM142.718 122C142.145 122 141.686 121.943 141.341 121.829C140.996 121.712 140.746 121.507 140.589 121.214C140.436 120.918 140.36 120.503 140.36 119.969V114.837H141.297V116.375H144.759V117.146H141.297V119.969C141.297 120.333 141.33 120.605 141.395 120.784C141.463 120.963 141.598 121.08 141.8 121.136C142.005 121.191 142.311 121.219 142.718 121.219C143.079 121.219 143.363 121.207 143.568 121.185C143.776 121.162 143.929 121.102 144.027 121.004C144.124 120.903 144.186 120.739 144.212 120.511C144.238 120.283 144.251 119.962 144.251 119.549H145.081C145.081 120.089 145.047 120.522 144.979 120.848C144.914 121.173 144.795 121.419 144.622 121.585C144.453 121.751 144.214 121.862 143.905 121.917C143.599 121.972 143.203 122 142.718 122Z" fill="#DAE7EE"/>
</g>
<circle cx="89" cy="82" r="16" fill="#0DA883"/>
<circle cx="89" cy="82" r="16" fill="url(#paint1_linear_1775_72856)"/>
<path d="M100.261 81.7435C100.041 77.815 96.7851 74.6973 92.802 74.6973H85.6895C81.563 74.6973 78.2176 78.0426 78.2176 82.1684C78.2176 86.2949 81.563 89.6402 85.6895 89.6402H89.4925V92.5124L92.3646 89.6402H92.802C96.9277 89.6402 100.273 86.2949 100.273 82.1691C100.273 82.0257 100.269 81.8838 100.261 81.7435ZM96.4038 85.6018L96.2346 85.771L96.2222 85.7827C95.3303 86.6278 94.1265 87.1455 92.802 87.1455H91.9865L89.4925 89.6395V87.1455H85.6895C82.9406 87.1455 80.7124 84.9173 80.7124 82.1691C80.7124 79.4202 82.9406 77.192 85.6895 77.192H92.802C95.2929 77.192 97.3565 79.0226 97.7206 81.4114C97.7588 81.6585 97.7783 81.9111 97.7783 82.1684C97.7783 83.4953 97.2598 84.699 96.414 85.5909L96.4038 85.6018Z" fill="white"/>
<rect x="84.0648" y="80.4663" width="10.3689" height="3.74218" rx="1.87109" fill="url(#paint2_linear_1775_72856)"/>
<g filter="url(#filter1_d_1775_72856)">
<path d="M85.9359 84.2085C86.9693 84.2085 87.807 83.3708 87.807 82.3374C87.807 81.304 86.9693 80.4663 85.9359 80.4663C84.9025 80.4663 84.0648 81.304 84.0648 82.3374C84.0648 83.3708 84.9025 84.2085 85.9359 84.2085Z" fill="white"/>
</g>
<g filter="url(#filter2_d_1775_72856)">
<path d="M92.5627 84.2085C93.5961 84.2085 94.4338 83.3708 94.4338 82.3374C94.4338 81.304 93.5961 80.4663 92.5627 80.4663C91.5293 80.4663 90.6916 81.304 90.6916 82.3374C90.6916 83.3708 91.5293 84.2085 92.5627 84.2085Z" fill="white"/>
</g>
<defs>
<filter id="filter0_i_1775_72856" x="109.894" y="102.5" width="35.1873" height="20.6074" filterUnits="userSpaceOnUse" color-interpolation-filters="sRGB">
<feFlood flood-opacity="0" result="BackgroundImageFix"/>
<feBlend mode="normal" in="SourceGraphic" in2="BackgroundImageFix" result="shape"/>
<feColorMatrix in="SourceAlpha" type="matrix" values="0 0 0 0 0 0 0 0 0 0 0 0 0 0 0 0 0 0 127 0" result="hardAlpha"/>
<feOffset dy="1"/>
<feGaussianBlur stdDeviation="1"/>
<feComposite in2="hardAlpha" operator="arithmetic" k2="-1" k3="1"/>
<feColorMatrix type="matrix" values="0 0 0 0 0 0 0 0 0 0 0 0 0 0 0 0 0 0 0.25 0"/>
<feBlend mode="normal" in2="shape" result="effect1_innerShadow_1775_72856"/>
</filter>
<filter id="filter1_d_1775_72856" x="80.0519" y="76.4534" width="11.7681" height="11.7681" filterUnits="userSpaceOnUse" color-interpolation-filters="sRGB">
<feFlood flood-opacity="0" result="BackgroundImageFix"/>
<feColorMatrix in="SourceAlpha" type="matrix" values="0 0 0 0 0 0 0 0 0 0 0 0 0 0 0 0 0 0 127 0" result="hardAlpha"/>
<feOffset/>
<feGaussianBlur stdDeviation="2.00648"/>
<feComposite in2="hardAlpha" operator="out"/>
<feColorMatrix type="matrix" values="0 0 0 0 0 0 0 0 0 0.643056 0 0 0 0 0.487048 0 0 0 0.24 0"/>
<feBlend mode="normal" in2="BackgroundImageFix" result="effect1_dropShadow_1775_72856"/>
<feBlend mode="normal" in="SourceGraphic" in2="effect1_dropShadow_1775_72856" result="shape"/>
</filter>
<filter id="filter2_d_1775_72856" x="86.6787" y="76.4534" width="11.7681" height="11.7681" filterUnits="userSpaceOnUse" color-interpolation-filters="sRGB">
<feFlood flood-opacity="0" result="BackgroundImageFix"/>
<feColorMatrix in="SourceAlpha" type="matrix" values="0 0 0 0 0 0 0 0 0 0 0 0 0 0 0 0 0 0 127 0" result="hardAlpha"/>
<feOffset/>
<feGaussianBlur stdDeviation="2.00648"/>
<feComposite in2="hardAlpha" operator="out"/>
<feColorMatrix type="matrix" values="0 0 0 0 0 0 0 0 0 0.643056 0 0 0 0 0.487048 0 0 0 0.24 0"/>
<feBlend mode="normal" in2="BackgroundImageFix" result="effect1_dropShadow_1775_72856"/>
<feBlend mode="normal" in="SourceGraphic" in2="effect1_dropShadow_1775_72856" result="shape"/>
</filter>
<linearGradient id="paint0_linear_1775_72856" x1="125.5" y1="79" x2="125.5" y2="202" gradientUnits="userSpaceOnUse">
<stop stop-color="#D9D9D9"/>
<stop offset="1" stop-color="#D9D9D9" stop-opacity="0"/>
</linearGradient>
<linearGradient id="paint1_linear_1775_72856" x1="73.7352" y1="73.562" x2="105.746" y2="80.4352" gradientUnits="userSpaceOnUse">
<stop stop-color="#0CBE8C"/>
<stop offset="1" stop-color="#5B72DE"/>
</linearGradient>
<linearGradient id="paint2_linear_1775_72856" x1="84.0648" y1="82.3374" x2="94.4337" y2="82.3374" gradientUnits="userSpaceOnUse">
<stop offset="0.206666" stop-color="#009687"/>
<stop offset="0.853172" stop-color="white"/>
</linearGradient>
</defs>
</svg>
